<mxfile host="app.diagrams.net" modified="2024-07-19T18:19:11.492Z" agent="Mozilla/5.0 (Windows NT 10.0; Win64; x64) AppleWebKit/537.36 (KHTML, like Gecko) Chrome/126.0.0.0 Safari/537.36" etag="zo0PEPz9nhAKnwgI_OZ0" version="24.7.2" type="google">
  <diagram name="Page-1" id="e7e014a7-5840-1c2e-5031-d8a46d1fe8dd">
    <mxGraphModel dx="824" dy="321" grid="1" gridSize="10" guides="1" tooltips="1" connect="1" arrows="1" fold="1" page="1" pageScale="1" pageWidth="1169" pageHeight="826" background="none" math="0" shadow="0">
      <root>
        <mxCell id="0" />
        <mxCell id="1" parent="0" />
        <mxCell id="MlApbfdvTM8fXbj7i6RB-41" value="&lt;font style=&quot;font-size: 18px;&quot;&gt;&lt;b&gt;IPhone&lt;/b&gt;&lt;/font&gt;" style="rounded=0;whiteSpace=wrap;html=1;" vertex="1" parent="1">
          <mxGeometry x="520" y="160" width="120" height="60" as="geometry" />
        </mxCell>
        <mxCell id="MlApbfdvTM8fXbj7i6RB-42" value="" style="rounded=0;whiteSpace=wrap;html=1;" vertex="1" parent="1">
          <mxGeometry x="200" y="360" width="200" height="140" as="geometry" />
        </mxCell>
        <mxCell id="MlApbfdvTM8fXbj7i6RB-43" value="" style="rounded=0;whiteSpace=wrap;html=1;" vertex="1" parent="1">
          <mxGeometry x="480" y="360" width="200" height="140" as="geometry" />
        </mxCell>
        <mxCell id="MlApbfdvTM8fXbj7i6RB-44" value="" style="rounded=0;whiteSpace=wrap;html=1;" vertex="1" parent="1">
          <mxGeometry x="760" y="360" width="200" height="140" as="geometry" />
        </mxCell>
        <mxCell id="MlApbfdvTM8fXbj7i6RB-45" value="&lt;h1 style=&quot;margin-top: 0px;&quot;&gt;&lt;font style=&quot;font-size: 14px;&quot;&gt;Reprodutor musical&lt;/font&gt;&lt;/h1&gt;&lt;p&gt;+tocar()&lt;/p&gt;&lt;p&gt;+pausar(String pausar)&lt;/p&gt;&lt;p&gt;+selecionarMusica(String musica)&lt;/p&gt;" style="text;html=1;whiteSpace=wrap;overflow=hidden;rounded=0;" vertex="1" parent="1">
          <mxGeometry x="210" y="360" width="180" height="140" as="geometry" />
        </mxCell>
        <mxCell id="MlApbfdvTM8fXbj7i6RB-46" value="&lt;h1 style=&quot;margin-top: 0px;&quot;&gt;&lt;span style=&quot;background-color: initial; font-size: 14px;&quot;&gt;Aparelho telefÃ´nico&lt;/span&gt;&lt;/h1&gt;&lt;h1 style=&quot;margin-top: 0px;&quot;&gt;&lt;span style=&quot;background-color: initial; font-size: 12px; font-weight: normal;&quot;&gt;+ligar(String numero)&lt;/span&gt;&lt;br&gt;&lt;/h1&gt;&lt;p&gt;+atender()&lt;/p&gt;&lt;p&gt;+iniciarCorreioVoz()&lt;/p&gt;" style="text;html=1;whiteSpace=wrap;overflow=hidden;rounded=0;" vertex="1" parent="1">
          <mxGeometry x="490" y="360" width="190" height="140" as="geometry" />
        </mxCell>
        <mxCell id="MlApbfdvTM8fXbj7i6RB-47" value="&lt;h1 style=&quot;margin-top: 0px;&quot;&gt;&lt;span style=&quot;background-color: initial; font-size: 14px;&quot;&gt;Navegador na Internet&lt;/span&gt;&lt;/h1&gt;&lt;h1 style=&quot;margin-top: 0px;&quot;&gt;&lt;span style=&quot;background-color: initial; font-size: 12px; font-weight: normal;&quot;&gt;+exibirPaginas(String url)&lt;/span&gt;&lt;br&gt;&lt;/h1&gt;&lt;p&gt;+adicionandoNovaAba()&lt;/p&gt;&lt;p&gt;+atualizarPagina()&lt;/p&gt;" style="text;html=1;whiteSpace=wrap;overflow=hidden;rounded=0;" vertex="1" parent="1">
          <mxGeometry x="770" y="350" width="190" height="140" as="geometry" />
        </mxCell>
        <mxCell id="MlApbfdvTM8fXbj7i6RB-48" value="" style="endArrow=classic;html=1;rounded=0;exitX=0;exitY=1;exitDx=0;exitDy=0;" edge="1" parent="1" source="MlApbfdvTM8fXbj7i6RB-41">
          <mxGeometry width="50" height="50" relative="1" as="geometry">
            <mxPoint x="570" y="400" as="sourcePoint" />
            <mxPoint x="380" y="350" as="targetPoint" />
            <Array as="points" />
          </mxGeometry>
        </mxCell>
        <mxCell id="MlApbfdvTM8fXbj7i6RB-49" value="" style="endArrow=classic;html=1;rounded=0;exitX=1;exitY=1;exitDx=0;exitDy=0;entryX=0.111;entryY=0.021;entryDx=0;entryDy=0;entryPerimeter=0;" edge="1" parent="1" source="MlApbfdvTM8fXbj7i6RB-41" target="MlApbfdvTM8fXbj7i6RB-47">
          <mxGeometry width="50" height="50" relative="1" as="geometry">
            <mxPoint x="530" y="230" as="sourcePoint" />
            <mxPoint x="800" y="340" as="targetPoint" />
            <Array as="points" />
          </mxGeometry>
        </mxCell>
        <mxCell id="MlApbfdvTM8fXbj7i6RB-50" value="" style="endArrow=classic;html=1;rounded=0;exitX=0.5;exitY=1;exitDx=0;exitDy=0;" edge="1" parent="1" source="MlApbfdvTM8fXbj7i6RB-41">
          <mxGeometry width="50" height="50" relative="1" as="geometry">
            <mxPoint x="530" y="230" as="sourcePoint" />
            <mxPoint x="580" y="350" as="targetPoint" />
            <Array as="points" />
          </mxGeometry>
        </mxCell>
      </root>
    </mxGraphModel>
  </diagram>
</mxfile>
